<svg width="729" height="132" viewBox="0 0 729 132" fill="none" xmlns="http://www.w3.org/2000/svg">
<path fill-rule="evenodd" clip-rule="evenodd" d="M50.5 48.3684C34.8422 48.3684 22.1491 61.0615 22.1491 76.7193V86.5439C22.1491 97.0857 30.695 105.632 41.2368 105.632H50.5C66.1578 105.632 78.8509 92.8128 78.8509 77C78.8509 61.1872 66.1578 48.3684 50.5 48.3684ZM16 26C7.16344 26 0 33.1634 0 42L0 112C0 120.837 7.16345 128 16 128H50.5C78.3904 128 101 105.167 101 77C101 48.8335 78.3904 26 50.5 26H16Z" fill="#FFFF"/>
<path d="M38.0859 91.4906C37.7015 91.9026 38.086 92.4374 38.5952 92.1988L50.5088 86.0019C53.233 84.5849 54.9058 81.7337 54.8136 78.6644L54.3486 63.1881C54.3287 62.5274 53.5762 62.4059 53.352 63.0272L48.359 79.1386C48.0096 80.2662 47.4149 81.3025 46.6177 82.1731L38.0859 91.4906Z" fill="#FFFF"/>
<path fill-rule="evenodd" clip-rule="evenodd" d="M104.131 48.4896C103.909 49.8835 105.737 51.6251 106.681 50.7762C107.556 49.9883 108.415 49.161 109.097 48.3952C111.504 45.6929 113.468 42.5899 113.468 42.5899C113.468 42.5899 120.639 29.8847 114.244 14.4614C109.941 5.27605 101.777 1.21021 99.0784 0.0773205C98.5583 -0.141019 98.0328 0.118622 97.8051 0.660136C96.9856 2.60906 94.9709 7.18087 92.9678 10.0372C90.9662 12.8914 87.4284 16.2399 85.4096 18.0566C84.7402 18.659 84.9205 19.9597 85.7375 20.4362C89.2132 22.4632 96.6071 27.1344 99.3297 31.6385C104.493 37.6926 104.841 44.0429 104.131 48.4896ZM106.328 6.2598C106.567 5.93739 106.504 5.47919 106.187 5.23639C105.869 4.99358 105.418 5.05811 105.179 5.38052L103.313 7.89838C103.074 8.22079 103.137 8.67899 103.454 8.9218C103.772 9.1646 104.223 9.10007 104.462 8.77766L106.328 6.2598ZM102.595 11.2955C102.834 10.9731 102.771 10.5149 102.453 10.2721C102.136 10.0293 101.685 10.0938 101.446 10.4162L99.5794 12.9341C99.3404 13.2565 99.4039 13.7147 99.7213 13.9575C100.039 14.2003 100.49 14.1358 100.729 13.8134L102.595 11.2955ZM98.8621 16.3313C99.1011 16.0088 99.0376 15.5506 98.7202 15.3078C98.4029 15.065 97.9518 15.1296 97.7128 15.452L95.8462 17.9698C95.6072 18.2922 95.6707 18.7504 95.9881 18.9933C96.3055 19.2361 96.7565 19.1715 96.9955 18.8491L98.8621 16.3313ZM95.129 21.367C95.368 21.0446 95.3045 20.5864 94.9871 20.3436C94.6697 20.1008 94.2187 20.1653 93.9796 20.4877L92.1131 23.0056C91.8741 23.328 91.9376 23.7862 92.255 24.029C92.5723 24.2718 93.0234 24.2073 93.2624 23.8848L95.129 21.367Z" fill="#FFFF"/>
<path d="M116.951 29.568C115.677 40.535 112.614 43.8476 112.614 43.8476C112.614 43.8476 112.395 37.9904 111.694 34.7141C111.29 32.8296 110.451 30.7901 109.853 29.4776C109.474 28.6457 109.555 27.6564 110.065 27.018C110.911 25.9602 112.146 24.2977 112.768 22.8963C113.877 20.4008 114.148 14.2359 114.148 14.2359C114.148 14.2359 117.438 22.225 116.951 29.568Z" fill="#AAAAAA"/>
<path d="M729 124.217C729 127.53 726.314 130.217 723 130.217H715.132C714.1 130.217 713.224 129.459 713.075 128.438C712.816 126.664 710.49 125.96 709.058 127.039C707.844 127.952 706.522 128.733 705.093 129.38C702.218 130.681 699.052 131.332 695.595 131.332C691.811 131.332 688.445 130.588 685.497 129.101C682.55 127.614 680.221 125.569 678.511 122.967C676.837 120.327 676 117.334 676 113.988C676 110.456 676.91 107.351 678.729 104.674C680.585 101.997 683.132 99.8968 686.371 98.3724C689.609 96.8481 693.303 96.0859 697.451 96.0859C699.816 96.0859 702.145 96.3461 704.438 96.8666C706.373 97.2992 708.233 97.8729 710.017 98.5878C710.529 98.793 711.097 98.4222 711.097 97.8705C711.097 95.9 710.515 94.1897 709.35 92.7397C708.186 91.2897 706.603 90.1558 704.601 89.3378C702.6 88.4827 700.326 88.0551 697.779 88.0551C695.268 88.0551 692.83 88.4641 690.464 89.282C687.016 90.4203 682.756 89.1521 681.576 85.7178L680.993 84.0216C680.011 81.1634 681.296 77.9851 684.114 76.8916C686.346 76.0252 688.572 75.3221 690.792 74.782C694.649 73.8154 698.361 73.332 701.927 73.332C707.422 73.332 712.188 74.4288 716.228 76.6224C720.303 78.816 723.451 81.9205 725.67 85.9359C727.89 89.9141 729 94.6359 729 100.101V124.217ZM699.634 117.669C701.49 117.669 703.273 117.26 704.984 116.442C706.73 115.587 708.149 114.471 709.241 113.095C710.369 111.72 710.951 110.251 710.988 108.69C710.988 108.55 710.918 108.42 710.801 108.345C709.394 107.439 707.837 106.754 706.13 106.292C704.347 105.771 702.564 105.511 700.781 105.511C698.124 105.511 695.996 106.069 694.394 107.184C692.793 108.262 691.993 109.712 691.993 111.534C691.993 112.687 692.32 113.746 692.975 114.713C693.63 115.642 694.54 116.367 695.704 116.888C696.869 117.408 698.179 117.669 699.634 117.669Z" fill="#FFFF"/>
<path d="M650.222 128.332C650.222 129.437 649.327 130.332 648.222 130.332H634C632.895 130.332 632 129.437 632 128.332V76.4497C632 75.3451 632.895 74.4497 634 74.4497H645.962C647.015 74.4497 647.887 75.2665 647.957 76.3174L648.002 76.9872C648.133 78.9696 651.109 79.7731 652.583 78.4412C653.578 77.5425 654.661 76.7522 655.833 76.0703C658.907 74.2448 662.426 73.332 666.389 73.332C667.611 73.332 668.852 73.4252 670.111 73.6114C670.85 73.7176 671.588 73.8539 672.327 74.0205C673.295 74.2389 673.902 75.1785 673.769 76.1619L672.095 88.5784C671.93 89.8089 670.695 90.5852 669.485 90.3069C667.742 89.906 666.08 89.7056 664.5 89.7056C661.611 89.7056 659.093 90.3389 656.944 91.6056C654.796 92.8722 653.13 94.6418 651.944 96.9144C650.796 99.1869 650.222 101.869 650.222 104.961V128.332Z" fill="#FFFF"/>
<path d="M593.582 131.332C587.895 131.332 582.81 130.087 578.326 127.595C573.879 125.067 570.379 121.628 567.828 117.278C565.276 112.891 564 107.909 564 102.332C564 96.7551 565.276 91.7916 567.828 87.4416C570.379 83.0545 573.879 79.6154 578.326 77.1243C582.81 74.5961 587.895 73.332 593.582 73.332C599.269 73.332 604.318 74.5961 608.728 77.1243C613.176 79.6154 616.657 83.0545 619.172 87.4416C621.724 91.7916 623 96.7551 623 102.332C623 107.909 621.724 112.891 619.172 117.278C616.657 121.628 613.176 125.067 608.728 127.595C604.318 130.087 599.269 131.332 593.582 131.332ZM593.527 114.936C595.642 114.936 597.537 114.397 599.214 113.319C600.891 112.24 602.203 110.735 603.151 108.801C604.135 106.868 604.627 104.674 604.627 102.22C604.627 99.841 604.135 97.7032 603.151 95.807C602.203 93.9109 600.891 92.4237 599.214 91.3455C597.537 90.2673 595.642 89.7282 593.527 89.7282C591.377 89.7282 589.463 90.2673 587.786 91.3455C586.109 92.4237 584.778 93.9109 583.794 95.807C582.846 97.7032 582.373 99.841 582.373 102.22C582.373 104.674 582.846 106.868 583.794 108.801C584.778 110.735 586.109 112.24 587.786 113.319C589.463 114.397 591.377 114.936 593.527 114.936Z" fill="#FFFF"/>
<path d="M504 130.17C500.686 130.17 498 127.483 498 124.17V43C508.328 43 516.7 51.3721 516.7 61.6997V78.2747C520.767 73.3544 526.392 70.8943 533.575 70.8943C540.644 70.8943 546.156 73.1413 550.108 77.6354C554.061 82.1295 556.037 88.3863 556.037 96.406V124.17C556.037 127.483 553.351 130.17 550.037 130.17H543.338C540.024 130.17 537.338 127.483 537.338 124.17V101.578C537.338 97.2389 536.445 93.8877 534.658 91.5245C532.91 89.1224 530.42 87.9214 527.19 87.9214C523.883 87.9214 521.299 89.1224 519.436 91.5245C517.612 93.9265 516.7 97.2777 516.7 101.578V124.17C516.7 127.483 514.013 130.17 510.7 130.17H504Z" fill="#FFFF"/>
<path d="M485 123.865C485 127.179 482.314 129.865 479 129.865H470.591C469.529 129.865 468.628 129.088 468.472 128.038C468.201 126.222 465.832 125.498 464.359 126.593C463.085 127.54 461.695 128.347 460.191 129.014C457.207 130.338 453.922 131 450.335 131C446.407 131 442.915 130.244 439.856 128.731C436.797 127.218 434.38 125.138 432.606 122.49C430.869 119.805 430 116.761 430 113.357C430 109.764 430.944 106.606 432.832 103.883C434.758 101.16 437.401 99.0228 440.762 97.4721C444.123 95.9215 447.956 95.1462 452.261 95.1462C454.715 95.1462 457.132 95.4109 459.511 95.9404C461.526 96.3819 463.462 96.968 465.32 97.6987C465.844 97.9049 466.421 97.5248 466.421 96.9615C466.421 94.9571 465.817 93.2173 464.609 91.7423C463.4 90.2673 461.758 89.1138 459.681 88.2817C457.604 87.4119 455.244 86.9769 452.6 86.9769C449.995 86.9769 447.465 87.3929 445.01 88.225C441.416 89.388 437.002 88.0681 435.753 84.5032L435.172 82.848C434.162 79.9655 435.467 76.7502 438.32 75.659C440.67 74.7602 443.013 74.0322 445.35 73.475C449.353 72.4917 453.205 72 456.905 72C462.607 72 467.554 73.1157 471.746 75.3471C475.975 77.5785 479.241 80.7365 481.545 84.8212C483.848 88.8679 485 93.6712 485 99.2308V123.865ZM454.526 117.101C456.452 117.101 458.302 116.685 460.077 115.853C461.89 114.983 463.363 113.848 464.495 112.449C465.666 111.05 466.27 109.556 466.308 107.967C466.308 107.826 466.237 107.693 466.117 107.618C464.656 106.696 463.039 105.999 461.267 105.528C459.416 104.998 457.566 104.734 455.716 104.734C452.959 104.734 450.75 105.301 449.089 106.436C447.427 107.532 446.596 109.007 446.596 110.861C446.596 112.033 446.936 113.111 447.616 114.094C448.296 115.04 449.24 115.777 450.448 116.307C451.656 116.836 453.016 117.101 454.526 117.101Z" fill="#FFFF"/>
<path d="M421 128C421 129.105 420.105 130 419 130H404.223C403.118 130 402.223 129.105 402.223 128V102.024C402.223 97.7778 401.421 94.4987 399.819 92.1863C398.216 89.8359 395.926 88.6608 392.949 88.6608C389.934 88.6608 387.587 89.8359 385.907 92.1863C384.228 94.5366 383.389 97.8157 383.389 102.024V128C383.389 129.105 382.493 130 381.389 130H366.611C365.507 130 364.611 129.105 364.611 128V102.024C364.611 97.7778 363.81 94.4987 362.207 92.1863C360.604 89.8359 358.314 88.6608 355.337 88.6608C352.322 88.6608 349.975 89.8359 348.296 92.1863C346.617 94.5366 345.777 97.8157 345.777 102.024V128C345.777 129.105 344.882 130 343.777 130H329C327.895 130 327 129.105 327 128V75.1373C327 74.0327 327.895 73.1373 329 73.1373H340.017C341.068 73.1373 341.94 73.9512 342.012 75L342.064 75.7487C342.199 77.7188 345.121 78.5088 346.584 77.1829C347.681 76.1891 348.881 75.3334 350.185 74.6157C353.391 72.8719 357.112 72 361.348 72C365.661 72 369.401 72.8908 372.569 74.6725C374.739 75.8529 376.585 77.3893 378.108 79.2818C379.085 80.4958 381.098 80.525 382.088 79.3214C383.685 77.3791 385.569 75.8105 387.739 74.6157C390.907 72.8719 394.628 72 398.903 72C405.849 72 411.268 74.1987 415.161 78.5961C419.054 82.9935 421 89.1157 421 96.9627V128Z" fill="#FFFF"/>
<path d="M305.242 59.2596C302.886 59.2596 300.89 58.4266 299.256 56.7607C297.66 55.0561 296.861 53.0028 296.861 50.6007C296.861 48.2375 297.66 46.2229 299.256 44.557C300.89 42.8523 302.886 42 305.242 42C307.637 42 309.651 42.8523 311.285 44.557C312.92 46.2229 313.737 48.2375 313.737 50.6007C313.737 53.0028 312.92 55.0561 311.285 56.7607C309.651 58.4266 307.637 59.2596 305.242 59.2596ZM314.649 120.459C314.649 125.623 310.463 129.809 305.299 129.809C300.135 129.809 295.949 125.623 295.949 120.459V81.0457C295.949 75.8819 300.135 71.6958 305.299 71.6958C310.463 71.6958 314.649 75.8819 314.649 81.0457V120.459Z" fill="#FFFF"/>
<path d="M288.544 125.171C288.811 127.005 287.791 128.803 286.023 129.358C282.535 130.453 279.128 131 275.8 131C271.306 131 267.322 130.042 263.847 128.126C260.411 126.172 257.729 123.489 255.803 120.079C253.877 116.63 252.914 112.625 252.914 108.065V93.2118C252.914 91.0027 251.123 89.2118 248.914 89.2118H247C244.791 89.2118 243 87.421 243 85.2118V76.3701C243 74.1609 244.791 72.3701 247 72.3701H249.933C252.143 72.3701 253.933 70.5792 253.933 68.3701V62C253.933 59.7909 255.724 58 257.933 58H267.495C269.704 58 271.495 59.7909 271.495 62V68.3701C271.495 70.5792 273.286 72.3701 275.495 72.3701H282.791C285 72.3701 286.791 74.1609 286.791 76.3701V85.2118C286.791 87.4209 285 89.2118 282.791 89.2118H275.495C273.286 89.2118 271.495 91.0027 271.495 93.2118V104.674C271.495 107.701 272.326 110.039 273.988 111.687C275.649 113.334 277.651 114.158 279.993 114.158C280.23 114.158 280.467 114.15 280.703 114.134C283.646 113.935 287.115 115.363 287.54 118.282L288.544 125.171Z" fill="#FFFF"/>
<path d="M234.435 119.808C234.435 125.331 229.924 129.808 224.401 129.808C218.878 129.808 214.367 125.331 214.367 119.808V52.6387C214.367 47.1158 218.878 42.6387 224.401 42.6387C229.924 42.6387 234.435 47.1158 234.435 52.6387V119.808Z" fill="#FFFF"/>
<path d="M191.62 42.6387C197.143 42.6387 201.654 47.1158 201.654 52.6387V90.5239C201.654 99.0472 200.134 106.369 197.093 112.491C194.09 118.612 189.758 123.319 184.095 126.612C178.469 129.905 171.704 131.552 163.798 131.552C155.969 131.552 149.223 129.905 143.559 126.612C137.896 123.319 133.544 118.612 130.504 112.491C127.501 106.369 126 99.0472 126 90.5239V52.6387C126 47.1158 130.511 42.6387 136.034 42.6387C141.557 42.6387 146.068 47.1158 146.068 52.6387V87.8507C146.068 93.662 146.714 98.4854 148.006 102.321C149.337 106.118 151.313 108.965 153.936 110.863C156.558 112.762 159.846 113.711 163.798 113.711C167.789 113.711 171.096 112.762 173.718 110.863C176.341 108.965 178.298 106.118 179.591 102.321C180.921 98.4854 181.586 93.662 181.586 87.8507V52.6387C181.586 47.1158 186.097 42.6387 191.62 42.6387Z" fill="#FFFF"/>
</svg>
