<svg width="190" height="40" viewBox="0 0 190 40" fill="none" xmlns="http://www.w3.org/2000/svg">
<mask id="mask0_4_39" style="mask-type:luminance" maskUnits="userSpaceOnUse" x="0" y="5" width="35" height="35">
<path d="M0 5H34.6667V39.4844H0V5Z" fill="white"/>
</mask>
<g mask="url(#mask0_4_39)">
<path fill-rule="evenodd" clip-rule="evenodd" d="M17.0833 13.0365C11.7865 13.0365 7.48958 17.2813 7.48958 22.5208V25.8958C7.48958 29.2917 10.276 32.0469 13.7083 32.0469H17.0833C22.375 32.0469 26.6719 27.7917 26.6719 22.5417C26.6719 17.2917 22.375 13.0365 17.0833 13.0365ZM3.31771 5.60938C1.48437 5.60938 0 7.07813 0 8.88542V36.1927C0 38.0052 1.48437 39.474 3.31771 39.474H17.0833C26.5156 39.474 34.1615 31.8906 34.1615 22.5417C34.1615 13.1875 26.5156 5.60938 17.0833 5.60938H3.31771Z" fill="#ffbf00"/>
</g>
<path d="M12.8229 27.25C12.6979 27.3854 12.8229 27.5625 12.9948 27.4844L17.5833 25.1354C18.151 24.8438 18.5 24.2604 18.4792 23.6302L18.3021 17.8594C18.2969 17.6406 18.0417 17.599 17.9687 17.8073L16.2187 23.3698C16.1458 23.599 16.0208 23.8125 15.8542 23.9896L12.8229 27.25Z" fill="#ffbf00"/>
<path fill-rule="evenodd" clip-rule="evenodd" d="M34.3854 12.3958C34.3281 12.7448 34.8021 13.1875 35.0469 12.974C35.276 12.776 35.4948 12.5625 35.6719 12.3698C36.2969 11.6875 36.8073 10.901 36.8073 10.901C36.8073 10.901 38.6615 7.6823 37.0052 3.77604C35.8906 1.45313 33.776 0.421877 33.0781 0.135419C32.9427 0.078128 32.8073 0.145837 32.7448 0.281255C32.5365 0.776045 32.0156 1.9323 31.4948 2.65625C30.974 3.38021 30.0573 4.22917 29.5365 4.6875C29.3646 4.83854 29.4115 5.17188 29.6198 5.29167C30.5208 5.80209 32.4375 6.98438 33.1406 8.125C34.4792 9.66146 34.5677 11.2656 34.3854 12.3958ZM34.9531 1.69792C35.0156 1.6198 35 1.50521 34.9167 1.44271C34.8385 1.38021 34.7187 1.39584 34.6562 1.47917L34.1719 2.11459C34.1146 2.19792 34.1302 2.3125 34.2135 2.375C34.2917 2.4375 34.4115 2.42188 34.474 2.33854L34.9531 1.69792ZM33.9896 2.97396C34.0521 2.89584 34.0312 2.77604 33.9531 2.71875C33.8698 2.65625 33.75 2.67188 33.6927 2.75521L33.2083 3.39063C33.1458 3.47396 33.1615 3.58854 33.2448 3.65104C33.3281 3.71354 33.4427 3.69271 33.5052 3.61459L33.9896 2.97396ZM33.0208 4.25C33.0833 4.16667 33.0677 4.05209 32.9844 3.98959C32.901 3.9323 32.7865 3.94792 32.724 4.02604L32.2396 4.66667C32.1771 4.7448 32.1927 4.86459 32.276 4.92709C32.3594 4.98438 32.474 4.96875 32.5365 4.89063L33.0208 4.25ZM32.0521 5.52605C32.1146 5.44271 32.099 5.32813 32.0156 5.26563C31.9375 5.20313 31.8177 5.22396 31.7552 5.30209L31.2708 5.94271C31.2135 6.02084 31.2292 6.14063 31.3073 6.19792C31.3906 6.26042 31.5104 6.2448 31.5729 6.16146L32.0521 5.52605Z" fill="#ffbf00"/>
<path d="M37.7083 7.60417C37.375 10.3802 36.5833 11.2188 36.5833 11.2188C36.5833 11.2188 36.5261 9.73438 36.3438 8.90625C36.2396 8.42708 36.0208 7.91146 35.8698 7.57813C35.7708 7.36979 35.7917 7.11979 35.9219 6.95833C36.1406 6.6875 36.4636 6.26563 36.625 5.91146C36.9115 5.28125 36.9792 3.71875 36.9792 3.71875C36.9792 3.71875 37.8333 5.74479 37.7083 7.60417Z" fill="#FFF1A"/>
<path d="M52.1922 36.7109L46.9839 27.2734H45.5255V36.7109H39.4422V11.7109H49.6505C51.6193 11.7109 53.3016 12.0599 54.6922 12.7526C56.0776 13.4349 57.1141 14.3776 57.7964 15.5859C58.4891 16.7838 58.838 18.1172 58.838 19.5859C58.838 21.2526 58.3641 22.7422 57.4214 24.0443C56.4891 25.3515 55.1141 26.2734 53.2964 26.8151L59.0672 36.7109H52.1922ZM45.5255 22.9609H49.2964C50.4214 22.9609 51.2599 22.6901 51.8172 22.1484C52.3693 21.6068 52.6505 20.8359 52.6505 19.8359C52.6505 18.8932 52.3693 18.1484 51.8172 17.6068C51.2599 17.0547 50.4214 16.7734 49.2964 16.7734H45.5255V22.9609Z" fill="#ffbf00"/>
<path d="M81.3832 26.4609C81.3832 27.0338 81.3467 27.6224 81.279 28.2318H67.4873C67.5811 29.4713 67.9769 30.4141 68.6748 31.0651C69.3832 31.7213 70.2478 32.0443 71.279 32.0443C72.7894 32.0443 73.8467 31.4088 74.4457 30.1276H80.9248C80.5915 31.4349 79.9873 32.6068 79.1123 33.6484C78.2478 34.6901 77.1644 35.513 75.8623 36.1068C74.5551 36.7057 73.0967 37.0026 71.4873 37.0026C69.5394 37.0026 67.8051 36.5859 66.279 35.7526C64.7634 34.9193 63.5759 33.7318 62.7165 32.1901C61.8676 30.6484 61.4457 28.8463 61.4457 26.7734C61.4457 24.7213 61.8623 22.9193 62.6957 21.3776C63.5394 19.8255 64.7217 18.638 66.2373 17.8151C67.7634 16.9818 69.5134 16.5651 71.4873 16.5651C73.404 16.5651 75.1123 16.9713 76.6123 17.7734C78.1123 18.5807 79.279 19.7318 80.1123 21.2318C80.9561 22.7213 81.3832 24.4609 81.3832 26.4609ZM75.154 24.8568C75.154 23.8151 74.7894 22.9922 74.0707 22.3776C73.3623 21.7526 72.4717 21.4401 71.404 21.4401C70.3884 21.4401 69.529 21.7422 68.8207 22.3359C68.1228 22.9193 67.6957 23.763 67.529 24.8568H75.154Z" fill="#ffbf00"/>
<path d="M92.6675 37.0026C90.9279 37.0026 89.381 36.7057 88.0217 36.1068C86.6727 35.513 85.6102 34.7005 84.8342 33.6693C84.0529 32.6432 83.6154 31.4818 83.5217 30.1901H89.5425C89.6102 30.888 89.9279 31.4505 90.5008 31.8776C91.0685 32.2943 91.7613 32.5026 92.5842 32.5026C93.3446 32.5026 93.9383 32.3568 94.355 32.0651C94.7717 31.7734 94.98 31.388 94.98 30.8984C94.98 30.3307 94.6779 29.9141 94.0842 29.6484C93.5008 29.3724 92.5425 29.0651 91.2092 28.7318C89.7769 28.3984 88.5894 28.0547 87.6467 27.6901C86.6988 27.3151 85.881 26.7318 85.1883 25.9401C84.4904 25.1484 84.1467 24.0755 84.1467 22.7109C84.1467 21.5755 84.4592 20.5391 85.0842 19.6068C85.7196 18.6641 86.6519 17.9193 87.8758 17.3776C89.0946 16.8359 90.5477 16.5651 92.23 16.5651C94.73 16.5651 96.6935 17.1849 98.1258 18.4193C99.5685 19.6432 100.397 21.2734 100.605 23.3151H94.98C94.881 22.638 94.5738 22.0963 94.0633 21.6901C93.5633 21.2891 92.8967 21.0859 92.0633 21.0859C91.355 21.0859 90.8029 21.2266 90.4175 21.5026C90.0425 21.7682 89.855 22.138 89.855 22.6068C89.855 23.1797 90.1519 23.6068 90.7508 23.8984C91.3602 24.1797 92.3029 24.4609 93.5842 24.7526C95.0529 25.1276 96.256 25.5026 97.1883 25.8776C98.1154 26.2422 98.9279 26.8307 99.6258 27.6484C100.319 28.4713 100.678 29.5651 100.709 30.9401C100.709 32.1068 100.381 33.1484 99.73 34.0651C99.0738 34.9713 98.1363 35.6849 96.9175 36.2109C95.6935 36.737 94.2769 37.0026 92.6675 37.0026Z" fill="#ffbf00"/>
<path d="M112.533 37.0026C110.793 37.0026 109.246 36.7057 107.887 36.1068C106.538 35.513 105.476 34.7005 104.699 33.6693C103.918 32.6432 103.481 31.4818 103.387 30.1901H109.408C109.476 30.888 109.793 31.4505 110.366 31.8776C110.934 32.2943 111.627 32.5026 112.449 32.5026C113.21 32.5026 113.804 32.3568 114.22 32.0651C114.637 31.7734 114.845 31.388 114.845 30.8984C114.845 30.3307 114.543 29.9141 113.949 29.6484C113.366 29.3724 112.408 29.0651 111.074 28.7318C109.642 28.3984 108.455 28.0547 107.512 27.6901C106.564 27.3151 105.746 26.7318 105.054 25.9401C104.356 25.1484 104.012 24.0755 104.012 22.7109C104.012 21.5755 104.324 20.5391 104.949 19.6068C105.585 18.6641 106.517 17.9193 107.741 17.3776C108.96 16.8359 110.413 16.5651 112.095 16.5651C114.595 16.5651 116.559 17.1849 117.991 18.4193C119.434 19.6432 120.262 21.2734 120.47 23.3151H114.845C114.746 22.638 114.439 22.0963 113.929 21.6901C113.429 21.2891 112.762 21.0859 111.929 21.0859C111.22 21.0859 110.668 21.2266 110.283 21.5026C109.908 21.7682 109.72 22.138 109.72 22.6068C109.72 23.1797 110.017 23.6068 110.616 23.8984C111.226 24.1797 112.168 24.4609 113.449 24.7526C114.918 25.1276 116.121 25.5026 117.054 25.8776C117.981 26.2422 118.793 26.8307 119.491 27.6484C120.184 28.4713 120.543 29.5651 120.574 30.9401C120.574 32.1068 120.246 33.1484 119.595 34.0651C118.939 34.9713 118.002 35.6849 116.783 36.2109C115.559 36.737 114.142 37.0026 112.533 37.0026Z" fill="#ffbf00"/>
<path d="M123.106 26.7318C123.106 24.7057 123.487 22.9193 124.252 21.3776C125.028 19.8255 126.075 18.638 127.398 17.8151C128.731 16.9818 130.216 16.5651 131.856 16.5651C133.257 16.5651 134.487 16.8516 135.544 17.4193C136.596 17.9922 137.409 18.7318 137.981 19.6484V16.8359H144.065V36.7109H137.981V33.8984C137.382 34.8307 136.554 35.5807 135.502 36.1484C134.445 36.7161 133.221 37.0026 131.836 37.0026C130.211 37.0026 128.731 36.5807 127.398 35.7318C126.075 34.888 125.028 33.6849 124.252 32.1276C123.487 30.5755 123.106 28.7734 123.106 26.7318ZM137.981 26.7734C137.981 25.263 137.554 24.0651 136.711 23.1901C135.877 22.3047 134.856 21.8568 133.648 21.8568C132.44 21.8568 131.409 22.2943 130.565 23.1693C129.716 24.0338 129.294 25.2213 129.294 26.7318C129.294 28.263 129.716 29.4713 130.565 30.3568C131.409 31.2474 132.44 31.6901 133.648 31.6901C134.856 31.6901 135.877 31.2526 136.711 30.3776C137.554 29.5026 137.981 28.3047 137.981 26.7734Z" fill="#ffbf00"/>
<path d="M147.279 26.7734C147.279 24.7213 147.696 22.9193 148.529 21.3776C149.373 19.8255 150.55 18.638 152.05 17.8151C153.561 16.9818 155.29 16.5651 157.238 16.5651C159.738 16.5651 161.821 17.2213 163.488 18.5234C165.165 19.8307 166.264 21.6693 166.779 24.0443H160.3C159.759 22.5182 158.701 21.7526 157.134 21.7526C156.019 21.7526 155.134 22.1901 154.467 23.0651C153.8 23.9297 153.467 25.1641 153.467 26.7734C153.467 28.388 153.8 29.6276 154.467 30.5026C155.134 31.3672 156.019 31.7943 157.134 31.7943C158.701 31.7943 159.759 31.0391 160.3 29.5234H166.779C166.264 31.8463 165.16 33.6693 163.467 35.0026C161.785 36.3359 159.707 37.0026 157.238 37.0026C155.29 37.0026 153.561 36.5859 152.05 35.7526C150.55 34.9193 149.373 33.7318 148.529 32.1901C147.696 30.6484 147.279 28.8463 147.279 26.7734Z" fill="#ffbf00"/>
<path d="M168.818 26.7318C168.818 24.7057 169.198 22.9193 169.964 21.3776C170.74 19.8255 171.787 18.638 173.11 17.8151C174.443 16.9818 175.927 16.5651 177.568 16.5651C178.969 16.5651 180.198 16.8516 181.256 17.4193C182.308 17.9922 183.12 18.7318 183.693 19.6484V16.8359H189.776V36.7109H183.693V33.8984C183.094 34.8307 182.266 35.5807 181.214 36.1484C180.157 36.7161 178.933 37.0026 177.547 37.0026C175.922 37.0026 174.443 36.5807 173.11 35.7318C171.787 34.888 170.74 33.6849 169.964 32.1276C169.198 30.5755 168.818 28.7734 168.818 26.7318ZM183.693 26.7734C183.693 25.263 183.266 24.0651 182.422 23.1901C181.589 22.3047 180.568 21.8568 179.36 21.8568C178.151 21.8568 177.12 22.2943 176.276 23.1693C175.427 24.0338 175.006 25.2213 175.006 26.7318C175.006 28.263 175.427 29.4713 176.276 30.3568C177.12 31.2474 178.151 31.6901 179.36 31.6901C180.568 31.6901 181.589 31.2526 182.422 30.3776C183.266 29.5026 183.693 28.3047 183.693 26.7734Z" fill="#ffbf00"/>
</svg>
