<svg width="487" height="195" viewBox="0 0 487 195" fill="none" xmlns="http://www.w3.org/2000/svg">
<path d="M386.459 175.763C386.459 179.076 383.772 181.763 380.459 181.763H375.567C374.756 181.763 374.067 181.167 373.95 180.364C373.747 178.968 371.916 178.415 370.79 179.264C369.838 179.982 368.801 180.595 367.68 181.104C365.422 182.129 362.935 182.641 360.22 182.641C357.247 182.641 354.603 182.055 352.288 180.885C349.973 179.714 348.144 178.104 346.8 176.055C345.486 173.977 344.828 171.621 344.828 168.987C344.828 166.206 345.543 163.762 346.972 161.655C348.43 159.547 350.43 157.893 352.974 156.693C355.518 155.493 358.419 154.893 361.678 154.893C363.535 154.893 365.365 155.098 367.165 155.508C368.685 155.848 370.145 156.3 371.546 156.862C371.949 157.024 372.396 156.732 372.396 156.298C372.396 154.747 371.939 153.401 371.024 152.259C370.109 151.118 368.866 150.225 367.294 149.581C365.722 148.908 363.936 148.571 361.935 148.571C359.963 148.571 358.048 148.893 356.19 149.537C353.483 150.433 350.135 149.437 349.211 146.739L348.834 145.641C348.015 143.25 349.089 140.589 351.45 139.687C353.12 139.049 354.786 138.527 356.447 138.122C359.477 137.361 362.392 136.98 365.193 136.98C369.509 136.98 373.254 137.844 376.426 139.571C379.628 141.298 382.1 143.742 383.843 146.903C385.587 150.035 386.459 153.752 386.459 158.054V175.763ZM363.393 171.884C364.85 171.884 366.251 171.562 367.594 170.918C368.966 170.245 370.081 169.367 370.938 168.284C371.824 167.201 372.282 166.045 372.31 164.816C372.31 164.706 372.256 164.603 372.163 164.544C371.058 163.831 369.835 163.292 368.495 162.928C367.094 162.518 365.693 162.313 364.293 162.313C362.206 162.313 360.534 162.752 359.277 163.63C358.019 164.479 357.39 165.621 357.39 167.055C357.39 167.962 357.647 168.796 358.162 169.557C358.676 170.289 359.391 170.86 360.306 171.27C361.22 171.679 362.249 171.884 363.393 171.884Z" fill="#FFBF00"/>
<path d="M324.579 179.853C324.579 180.958 323.683 181.853 322.579 181.853H312.266C311.161 181.853 310.266 180.958 310.266 179.853V139.86C310.266 138.756 311.161 137.86 312.266 137.86H321.116C322.009 137.86 322.748 138.553 322.807 139.444C322.918 141.125 325.469 141.821 326.748 140.725C327.442 140.131 328.188 139.602 328.986 139.136C331.401 137.699 334.165 136.98 337.278 136.98C338.238 136.98 339.212 137.054 340.201 137.2C340.661 137.267 341.121 137.348 341.581 137.444C342.552 137.647 343.158 138.588 343.026 139.571L341.828 148.479C341.662 149.711 340.426 150.484 339.209 150.235C338.021 149.992 336.883 149.87 335.794 149.87C333.525 149.87 331.546 150.369 329.859 151.366C328.172 152.363 326.863 153.757 325.932 155.546C325.03 157.335 324.579 159.446 324.579 161.881V179.853Z" fill="#FFBF00"/>
<path d="M280.092 182.641C275.625 182.641 271.63 181.66 268.108 179.699C264.615 177.709 261.866 175.001 259.862 171.577C257.858 168.123 256.855 164.201 256.855 159.811C256.855 155.42 257.858 151.513 259.862 148.088C261.866 144.634 264.615 141.927 268.108 139.966C271.63 137.976 275.625 136.98 280.092 136.98C284.559 136.98 288.524 137.976 291.989 139.966C295.482 141.927 298.217 144.634 300.192 148.088C302.197 151.513 303.199 155.42 303.199 159.811C303.199 164.201 302.197 168.123 300.192 171.577C298.217 175.001 295.482 177.709 291.989 179.699C288.524 181.66 284.559 182.641 280.092 182.641ZM280.049 169.733C281.709 169.733 283.198 169.309 284.516 168.46C285.833 167.611 286.864 166.425 287.608 164.903C288.381 163.381 288.768 161.655 288.768 159.723C288.768 157.85 288.381 156.167 287.608 154.674C286.864 153.181 285.833 152.01 284.516 151.161C283.198 150.313 281.709 149.888 280.049 149.888C278.359 149.888 276.856 150.313 275.539 151.161C274.222 152.01 273.177 153.181 272.404 154.674C271.659 156.167 271.287 157.85 271.287 159.723C271.287 161.655 271.659 163.381 272.404 164.903C273.177 166.425 274.222 167.611 275.539 168.46C276.856 169.309 278.359 169.733 280.049 169.733Z" fill="#FFBF00"/>
<path d="M211.012 181.728C207.698 181.728 205.012 179.041 205.012 175.728V113.104C213.124 113.104 219.7 119.68 219.7 127.792V140.873C222.894 137 227.313 135.063 232.955 135.063C238.508 135.063 242.837 136.832 245.942 140.37C249.047 143.908 250.599 148.834 250.599 155.147V175.728C250.599 179.041 247.913 181.728 244.599 181.728H241.911C238.597 181.728 235.911 179.041 235.911 175.728V159.219C235.911 155.803 235.209 153.165 233.806 151.304C232.433 149.413 230.477 148.468 227.94 148.468C225.342 148.468 223.312 149.413 221.85 151.304C220.417 153.195 219.7 155.833 219.7 159.219V175.728C219.7 179.041 217.014 181.728 213.7 181.728H211.012Z" fill="#FFBF00"/>
<path d="M486.998 105.683C486.998 108.997 484.312 111.683 480.998 111.683H475.682C474.847 111.683 474.139 111.072 474.016 110.246C473.804 108.818 471.939 108.248 470.78 109.11C469.781 109.854 468.691 110.488 467.511 111.013C465.168 112.055 462.587 112.576 459.769 112.576C456.685 112.576 453.941 111.981 451.538 110.79C449.136 109.599 447.238 107.961 445.844 105.877C444.479 103.763 443.797 101.366 443.797 98.6868C443.797 95.8583 444.538 93.3722 446.021 91.2284C447.534 89.0847 449.61 87.4025 452.25 86.1817C454.89 84.961 457.901 84.3506 461.282 84.3506C463.21 84.3506 465.108 84.559 466.977 84.9759C468.559 85.3233 470.08 85.7845 471.538 86.3595C471.951 86.522 472.405 86.223 472.405 85.7798C472.405 84.2018 471.931 82.8321 470.981 81.671C470.032 80.5098 468.742 79.6017 467.111 78.9466C465.479 78.2618 463.625 77.9194 461.549 77.9194C459.503 77.9194 457.515 78.2469 455.587 78.902C452.765 79.8171 449.298 78.7807 448.318 75.9805L447.982 75.0191C447.119 72.5495 448.235 69.7924 450.686 68.8756C452.413 68.2293 454.136 67.7008 455.854 67.2901C458.998 66.516 462.024 66.1289 464.931 66.1289C469.409 66.1289 473.295 67.0072 476.587 68.7639C479.909 70.5206 482.475 73.0067 484.284 76.2223C486.094 79.4081 486.998 83.1894 486.998 87.5662V105.683ZM463.062 101.634C464.575 101.634 466.028 101.307 467.422 100.652C468.846 99.9671 470.003 99.0739 470.892 97.9723C471.812 96.8706 472.287 95.6945 472.316 94.444C472.316 94.3326 472.26 94.2284 472.166 94.1688C471.019 93.4428 469.749 92.8944 468.356 92.5236C466.903 92.1068 465.45 91.8983 463.996 91.8983C461.831 91.8983 460.096 92.345 458.791 93.2382C457.486 94.1016 456.833 95.2628 456.833 96.7217C456.833 97.6447 457.1 98.4933 457.634 99.2674C458.168 100.012 458.909 100.592 459.858 101.009C460.808 101.426 461.875 101.634 463.062 101.634Z" fill="#FFBF00"/>
<path d="M436.73 109.789C436.73 110.894 435.835 111.789 434.73 111.789H423.981C422.876 111.789 421.981 110.894 421.981 109.789V89.7648C421.981 86.4224 421.351 83.8409 420.092 82.0205C418.833 80.1702 417.035 79.245 414.696 79.245C412.328 79.245 410.484 80.1702 409.165 82.0205C407.846 83.8708 407.187 86.4522 407.187 89.7648V109.789C407.187 110.894 406.291 111.789 405.187 111.789H394.438C393.333 111.789 392.438 110.894 392.438 109.789V89.7648C392.438 86.4224 391.808 83.8409 390.549 82.0205C389.29 80.1702 387.491 79.245 385.153 79.245C382.785 79.245 380.941 80.1702 379.622 82.0205C378.303 83.8708 377.644 86.4522 377.644 89.7648V109.789C377.644 110.894 376.748 111.789 375.644 111.789H364.895C363.79 111.789 362.895 110.894 362.895 109.789V69.0242C362.895 67.9196 363.79 67.0242 364.895 67.0242H372.987C373.887 67.0242 374.634 67.7211 374.695 68.6189C374.811 70.3063 377.341 70.9983 378.628 69.9008C379.393 69.2484 380.219 68.6775 381.106 68.1881C383.624 66.8153 386.547 66.1289 389.875 66.1289C393.262 66.1289 396.2 66.8302 398.688 68.2329C400.164 69.0376 401.45 70.0526 402.545 71.2779C403.584 72.441 405.619 72.4703 406.664 71.3129C407.807 70.0484 409.12 69.0068 410.604 68.1881C413.092 66.8153 416.015 66.1289 419.373 66.1289C424.829 66.1289 429.086 67.8598 432.143 71.3216C435.201 74.7835 436.73 79.6032 436.73 85.7807V109.789Z" fill="#FFBF00"/>
<path d="M345.803 56.0993C343.952 56.0993 342.385 55.4435 341.101 54.132C339.847 52.7901 339.22 51.1736 339.22 49.2826C339.22 47.4221 339.847 45.8362 341.101 44.5247C342.385 43.1827 343.952 42.5117 345.803 42.5117C347.684 42.5117 349.266 43.1827 350.55 44.5247C351.834 45.8362 352.476 47.4221 352.476 49.2826C352.476 51.1736 351.834 52.7901 350.55 54.132C349.266 55.4435 347.684 56.0993 345.803 56.0993ZM353.192 104.295C353.192 108.351 349.904 111.639 345.848 111.639C341.792 111.639 338.504 108.351 338.504 104.295V73.2338C338.504 69.1777 341.792 65.8896 345.848 65.8896C349.904 65.8896 353.192 69.1777 353.192 73.2338V104.295Z" fill="#FFBF00"/>
<path d="M332.592 107.326C332.858 109.158 331.841 110.962 330.064 111.479C327.548 112.211 325.086 112.576 322.678 112.576C319.148 112.576 316.018 111.822 313.289 110.314C310.59 108.775 308.484 106.664 306.971 103.979C305.458 101.264 304.701 98.1111 304.701 94.5212V83.5724C304.701 81.422 302.958 79.6788 300.808 79.6788C298.657 79.6788 296.914 77.9356 296.914 75.7852V70.4202C296.914 68.2111 298.705 66.4202 300.914 66.4202H301.502C303.711 66.4202 305.502 64.6293 305.502 62.4202V59.1074C305.502 56.8983 307.293 55.1074 309.502 55.1074H315.296C317.506 55.1074 319.296 56.8983 319.296 59.1074V62.4202C319.296 64.6293 321.087 66.4202 323.296 66.4202H327.311C329.52 66.4202 331.311 68.2111 331.311 70.4202V75.6788C331.311 77.8879 329.52 79.6788 327.311 79.6788H323.296C321.087 79.6788 319.296 81.4697 319.296 83.6788V91.8514C319.296 94.2346 319.949 96.0748 321.254 97.372C322.56 98.6692 324.132 99.3178 325.971 99.3178C328.545 99.3178 331.608 100.56 331.979 103.107L332.592 107.326Z" fill="#FFBF00"/>
<path d="M290.185 103.756C290.185 108.109 286.656 111.638 282.303 111.638C277.951 111.638 274.422 108.109 274.422 103.756V50.8952C274.422 46.5423 277.951 43.0137 282.303 43.0137C286.656 43.0137 290.185 46.5424 290.185 50.8952V103.756Z" fill="#FFBF00"/>
<path d="M256.555 43.0137C260.908 43.0137 264.437 46.5424 264.437 50.8952V80.7111C264.437 87.421 263.243 93.1854 260.854 98.0044C258.496 102.823 255.092 106.529 250.644 109.121C246.226 111.714 240.912 113.01 234.702 113.01C228.552 113.01 223.253 111.714 218.804 109.121C214.356 106.529 210.938 102.823 208.549 98.0044C206.191 93.1854 205.012 87.421 205.012 80.7111V50.8952C205.012 46.5424 208.54 43.0137 212.893 43.0137C217.246 43.0137 220.775 46.5424 220.775 50.8952V78.6067C220.775 83.1816 221.282 86.9788 222.297 89.9982C223.342 92.9872 224.895 95.2289 226.955 96.7234C229.015 98.2179 231.597 98.9651 234.702 98.9651C237.837 98.9651 240.434 98.2179 242.494 96.7234C244.554 95.2289 246.091 92.9872 247.106 89.9982C248.151 86.9788 248.674 83.1816 248.674 78.6067V50.8952C248.674 46.5423 252.202 43.0137 256.555 43.0137Z" fill="#FFBF00"/>
<path fill-rule="evenodd" clip-rule="evenodd" d="M82.4159 66.0272C56.8624 66.0272 36.1473 86.7424 36.1473 112.296V128.772C36.1473 145.34 49.5788 158.772 66.1473 158.772H82.4159C107.969 158.772 128.684 138.01 128.684 112.4C128.684 86.7888 107.969 66.0272 82.4159 66.0272ZM16 29.7988C7.16344 29.7988 0 36.9623 0 45.7988L0 179C0 187.837 7.16346 195 16 195H82.4159C127.933 195 164.832 158.019 164.832 112.4C164.832 66.7804 127.933 29.7988 82.4159 29.7988L16 29.7988Z" fill="#FFBF00"/>
<path d="M61.8828 135.373C61.2581 136.04 61.8829 136.906 62.7103 136.52L84.8419 125.053C87.5729 123.638 89.2508 120.783 89.1581 117.709L88.3092 89.564C88.2769 88.4946 87.0541 88.298 86.6898 89.3036L78.2476 116.437C77.8962 117.567 77.2987 118.604 76.4983 119.475L61.8828 135.373Z" fill="#FFBF00"/>
<path fill-rule="evenodd" clip-rule="evenodd" d="M165.914 66.8989C165.636 68.6208 167.922 70.7722 169.101 69.7236C170.195 68.7502 171.269 67.7283 172.122 66.7823C175.13 63.4441 177.585 59.611 177.585 59.611C177.585 59.611 186.548 43.9164 178.555 24.8641C173.176 13.5175 162.972 8.49496 159.598 7.09551C158.948 6.8258 158.291 7.14653 158.006 7.81546C156.982 10.223 154.464 15.8705 151.96 19.3989C149.458 22.9247 145.035 27.0611 142.512 29.3052C141.675 30.0493 141.901 31.6561 142.922 32.2447C147.267 34.7487 156.509 40.5189 159.912 46.0828C166.366 53.5614 166.801 61.406 165.914 66.8989ZM168.661 14.7327C168.959 14.3344 168.88 13.7684 168.483 13.4685C168.087 13.1685 167.523 13.2483 167.224 13.6465L164.891 16.7568C164.592 17.1551 164.671 17.7211 165.068 18.021C165.465 18.321 166.029 18.2413 166.327 17.843L168.661 14.7327ZM163.994 20.9533C164.293 20.555 164.213 19.989 163.817 19.6891C163.42 19.3891 162.856 19.4689 162.557 19.8671L160.224 22.9774C159.925 23.3757 160.005 23.9417 160.402 24.2416C160.798 24.5416 161.362 24.4619 161.661 24.0636L163.994 20.9533ZM159.328 27.1739C159.626 26.7756 159.547 26.2096 159.15 25.9097C158.754 25.6097 158.19 25.6895 157.891 26.0877L155.558 29.198C155.259 29.5963 155.338 30.1623 155.735 30.4623C156.132 30.7622 156.696 30.6825 156.994 30.2842L159.328 27.1739ZM154.661 33.3945C154.96 32.9962 154.881 32.4302 154.484 32.1303C154.087 31.8304 153.523 31.9101 153.225 32.3083L150.891 35.4186C150.593 35.8169 150.672 36.3829 151.069 36.6829C151.465 36.9828 152.029 36.9031 152.328 36.5048L154.661 33.3945Z" fill="#FFBF00"/>
<path d="M181.939 43.5251C180.346 57.0727 176.517 61.1647 176.517 61.1647C176.517 61.1647 176.244 53.9293 175.367 49.8821C174.863 47.5542 173.813 45.0349 173.066 43.4136C172.593 42.3858 172.694 41.1638 173.332 40.3751C174.389 39.0685 175.932 37.0148 176.71 35.2836C178.096 32.201 178.435 24.5856 178.435 24.5856C178.435 24.5856 182.547 34.4544 181.939 43.5251Z" fill="#FF7F00"/>
</svg>