<svg width="193" height="195" viewBox="0 0 193 195" fill="none" xmlns="http://www.w3.org/2000/svg">
<path fill-rule="evenodd" clip-rule="evenodd" d="M82.4159 66.0233V66.0233C56.8624 66.0233 36.1473 86.7385 36.1473 112.292V128.768C36.1473 145.337 49.5788 158.768 66.1473 158.768H82.4159C107.969 158.768 128.684 138.006 128.684 112.396C128.684 86.7849 107.969 66.0233 82.4159 66.0233ZM16 29.7949C7.16344 29.7949 0 36.9584 0 45.7949L0 178.996C0 187.833 7.16346 194.996 16 194.996H82.4159C127.933 194.996 164.832 158.015 164.832 112.396C164.832 66.7765 127.933 29.7949 82.4159 29.7949L16 29.7949Z" fill="#FFBF00"/>
<path d="M61.8828 135.37C61.2581 136.036 61.8829 136.902 62.7103 136.516L84.8419 125.049C87.5729 123.635 89.2508 120.779 89.1581 117.705L88.3092 89.5601C88.2769 88.4907 87.0541 88.2941 86.6898 89.2997L78.2476 116.433C77.8962 117.563 77.2987 118.6 76.4983 119.471L61.8828 135.37Z" fill="#FFBF00"/>
<path fill-rule="evenodd" clip-rule="evenodd" d="M165.914 62.8989C165.636 64.6208 167.922 66.7722 169.101 65.7236C170.195 64.7502 171.269 63.7283 172.122 62.7823C175.13 59.4441 177.585 55.611 177.585 55.611C177.585 55.611 186.548 39.9164 178.555 20.8641C173.176 9.51748 162.972 4.49496 159.598 3.09551C158.948 2.8258 158.291 3.14653 158.006 3.81546C156.982 6.22295 154.464 11.8705 151.96 15.3989C149.458 18.9247 145.035 23.0611 142.512 25.3052C141.675 26.0493 141.901 27.6561 142.922 28.2447C147.267 30.7487 156.509 36.5189 159.912 42.0828C166.366 49.5614 166.801 57.406 165.914 62.8989ZM168.661 10.7327C168.959 10.3344 168.88 9.76841 168.483 9.46848C168.086 9.16854 167.523 9.24825 167.224 9.64653L164.891 12.7568C164.592 13.1551 164.671 13.7211 165.068 14.021C165.465 14.321 166.029 14.2413 166.327 13.843L168.661 10.7327ZM163.994 16.9533C164.293 16.555 164.213 15.989 163.817 15.6891C163.42 15.3891 162.856 15.4689 162.557 15.8671L160.224 18.9774C159.925 19.3757 160.005 19.9417 160.402 20.2416C160.798 20.5416 161.362 20.4619 161.661 20.0636L163.994 16.9533ZM159.328 23.1739C159.626 22.7756 159.547 22.2096 159.15 21.9097C158.754 21.6097 158.19 21.6895 157.891 22.0877L155.558 25.198C155.259 25.5963 155.338 26.1623 155.735 26.4623C156.132 26.7622 156.696 26.6825 156.994 26.2842L159.328 23.1739ZM154.661 29.3945C154.96 28.9962 154.881 28.4302 154.484 28.1303C154.087 27.8304 153.523 27.9101 153.225 28.3083L150.891 31.4186C150.593 31.8169 150.672 32.3829 151.069 32.6829C151.465 32.9828 152.029 32.9031 152.328 32.5048L154.661 29.3945Z" fill="#FFBF00"/>
<path d="M181.939 39.5251C180.346 53.0727 176.517 57.1647 176.517 57.1647C176.517 57.1647 176.244 49.9293 175.367 45.8821C174.863 43.5542 173.813 41.0349 173.066 39.4136C172.593 38.3858 172.694 37.1638 173.332 36.3751C174.389 35.0685 175.932 33.0148 176.71 31.2836C178.096 28.201 178.435 20.5856 178.435 20.5856C178.435 20.5856 182.547 30.4544 181.939 39.5251Z" fill="#FFA41A"/>
</svg>
